<!DOCTYPE svg PUBLIC "-//W3C//DTD SVG 1.1//EN" "http://www.w3.org/Graphics/SVG/1.1/DTD/svg11.dtd">
<!-- Uploaded to: SVG Repo, www.svgrepo.com, Transformed by: SVG Repo Mixer Tools -->
<svg fill="#112A46" height="800px" width="800px" version="1.1" id="Capa_1" xmlns="http://www.w3.org/2000/svg" xmlns:xlink="http://www.w3.org/1999/xlink" viewBox="0 0 326.225 326.225" xml:space="preserve" stroke="#112A46">
<g id="SVGRepo_bgCarrier" stroke-width="0"/>
<g id="SVGRepo_tracerCarrier" stroke-linecap="round" stroke-linejoin="round"/>
<g id="SVGRepo_iconCarrier"> <path d="M322.693,75.119c-6.288-25.036-20.419-44.45-40.887-56.141c-13.244-7.576-28.229-11.415-44.569-11.415 c-21.569,0-44.176,6.739-65.336,19.479l-8.777,5.282l-8.779-5.282C133.16,14.302,110.572,7.563,88.987,7.563 c-16.323,0-31.33,3.839-44.572,11.415C23.972,30.669,9.829,50.083,3.532,75.118c-8.813,35.06-0.951,75.776,21.534,111.721 c28.224,45.129,109.42,109.778,138.058,131.823c28.618-22.045,109.805-86.694,138.057-131.823 C323.666,150.894,331.497,110.178,322.693,75.119z"/> </g>
</svg>